<svg width="266" height="283" viewBox="0 0 266 283" fill="none" xmlns="http://www.w3.org/2000/svg">
<g filter="url(#filter0_b_3_570)">
<path d="M242.177 193.255C256.682 201.738 263.934 205.98 265.086 214.293C266.239 222.606 261.23 227.813 251.212 238.225C242.661 247.113 232.986 254.915 222.397 261.417C201.936 273.98 178.693 281.304 154.726 282.739C130.759 284.174 106.808 279.676 84.9948 269.644C63.1814 259.611 44.1789 244.354 29.6704 225.224C15.1619 206.093 5.59535 183.68 1.81808 159.969C-1.95919 136.258 0.16943 111.982 8.01539 89.29C15.8614 66.5983 29.1825 46.1917 46.7988 29.878C55.9161 21.4349 66.0382 14.2229 76.9028 8.38595C89.6315 1.54752 95.9958 -1.87169 103.69 1.47999C111.384 4.83166 113.513 12.9592 117.77 29.2144L131.367 81.1282C132.031 83.6645 132.363 84.9327 132.457 85.3895C134.165 93.722 133.854 94.7885 127.934 100.896C127.609 101.231 124.965 103.679 119.678 108.576C115.003 112.905 111.469 118.319 109.387 124.34C107.305 130.362 106.74 136.803 107.742 143.095C108.745 149.386 111.283 155.333 115.133 160.41C118.983 165.486 124.025 169.534 129.813 172.196C135.601 174.858 141.956 176.052 148.315 175.671C154.675 175.29 160.842 173.347 166.271 170.013C172.413 166.242 175.484 164.356 175.894 164.134C183.371 160.081 184.482 160.069 192.045 163.961C192.46 164.175 193.591 164.836 195.855 166.16L242.177 193.255Z" fill="url(#paint0_linear_3_570)"/>
</g>
<defs>
<filter id="filter0_b_3_570" x="-57.6316" y="-57.4521" width="380.512" height="398.084" filterUnits="userSpaceOnUse" color-interpolation-filters="sRGB">
<feFlood flood-opacity="0" result="BackgroundImageFix"/>
<feGaussianBlur in="BackgroundImage" stdDeviation="28.8158"/>
<feComposite in2="SourceAlpha" operator="in" result="effect1_backgroundBlur_3_570"/>
<feBlend mode="normal" in="SourceGraphic" in2="effect1_backgroundBlur_3_570" result="shape"/>
</filter>
<linearGradient id="paint0_linear_3_570" x1="146" y1="-9" x2="146" y2="283" gradientUnits="userSpaceOnUse">
<stop stop-color="#FF5B96" stop-opacity="0.4"/>
<stop offset="1" stop-color="#FF5B79" stop-opacity="0.25"/>
</linearGradient>
</defs>
</svg>
