<svg width="1204" height="1204" viewBox="0 0 1204 1204" fill="none" xmlns="http://www.w3.org/2000/svg">
<g filter="url(#filter0_d_1:55)">
<g clip-path="url(#clip0_1:55)">
<rect x="64" y="66" width="1024" height="1024" rx="50" fill="url(#paint0_linear_1:55)"/>
<g filter="url(#filter1_f_1:55)">
<path d="M-57.6587 -156.784H1209L982.221 729.587L278.669 873.312L-57.6587 -156.784Z" fill="url(#paint1_linear_1:55)"/>
</g>
<g filter="url(#filter2_f_1:55)">
<ellipse cx="582.408" cy="662.951" rx="368.319" ry="357.839" fill="url(#paint2_linear_1:55)"/>
</g>
<g opacity="0.4" filter="url(#filter3_f_1:55)">
<ellipse cx="582.408" cy="662.951" rx="337.626" ry="327.894" fill="url(#paint3_linear_1:55)"/>
</g>
<g opacity="0.3" filter="url(#filter4_f_1:55)">
<path d="M500.746 23.5081C476.042 330.815 605.927 540.802 634 245.847C822.277 343.542 765.448 635.026 908.368 521.42C854.438 1010.81 242.223 972.264 63.3405 661.115C53.9318 648.671 49.1032 634.239 44.4932 623.587C50.0812 636.499 56.3831 649.013 63.3405 661.115C72.6083 673.371 86.3198 683.699 108.644 686.582C164.877 693.845 56.4484 442.979 128.18 391.169C268.394 535.187 268.394 163.874 500.746 23.5081Z" fill="url(#paint4_linear_1:55)"/>
</g>
<g filter="url(#filter5_f_1:55)">
<path d="M675.857 115.712C796.162 154.266 798.782 467.464 867.22 302.884C913.705 438.052 823.863 647.911 944.739 541.062C922.689 763.572 774.076 841.871 856.431 825.178C714.556 972.238 494.818 980.982 403.478 864.129C421.204 864.129 422.944 862.937 422.944 841.871C281.238 812.361 212.615 708.196 214.113 637.153C221.853 657.039 230.321 690.936 268.369 696.401C315.928 703.232 224.224 467.286 284.891 418.558C343.985 643.539 309.546 347.034 450.672 267.939C480.62 467.445 704.074 293.377 675.857 115.712Z" fill="url(#paint5_linear_1:55)"/>
</g>
<g opacity="0.1" filter="url(#filter6_f_1:55)">
<path d="M502.352 -182C623.019 -143.534 639.196 228.781 707.839 64.5758C846.831 201.232 800.102 396.234 921.341 289.629C1168.86 1084.66 -225.903 1127.24 123.758 179.986C183.03 404.455 148.487 108.625 290.038 29.7103C262.227 240.579 535.755 138.169 502.352 -182Z" fill="url(#paint6_linear_1:55)"/>
</g>
<g opacity="0.2" filter="url(#filter7_f_1:55)">
<path d="M311.051 149.338C274.685 343.283 472.728 263.371 460.281 -28.1841C574.575 53.556 630.257 197.705 686.882 252.226C721.13 285.201 837.032 251.945 792.035 128.609C908.938 248.244 830.313 423.777 944.583 321.595C955.958 1070.92 -16.0528 1021.42 154.108 293.199C194.909 496.225 180.118 226.975 311.051 149.338Z" fill="url(#paint7_radial_1:55)"/>
</g>
<g filter="url(#filter8_f_1:55)">
<path d="M502.76 163.455C589.345 189.59 650.48 378.247 699.735 266.683C799.469 359.529 768.329 538.887 855.323 466.457C1032.93 1006.61 32.1226 1035.55 283.021 391.964C321.207 682.268 316.718 362.061 418.288 308.446C432.787 466.457 589.124 321.684 502.76 163.455Z" fill="url(#paint8_linear_1:55)"/>
</g>
<g opacity="0.6" filter="url(#filter9_f_1:55)">
<ellipse cx="585.342" cy="857.518" rx="230.724" ry="40.9755" fill="url(#paint9_linear_1:55)"/>
</g>
<g filter="url(#filter10_i_1:55)">
<path d="M561.945 394.29C561.163 422.755 533.988 444.338 520.499 451.571C561.163 463.627 641.982 480.505 639.949 451.571C637.407 415.404 626.655 370.439 594.984 333.49C568.52 302.615 511.506 293.999 474.948 320.196C445.701 341.154 445.036 385.623 448.36 405.238L505.054 388.425C493.715 375.131 498.603 345.806 520.499 342.874C542.395 339.941 562.922 358.709 561.945 394.29Z" fill="url(#paint10_radial_1:55)"/>
</g>
<g opacity="0.9" filter="url(#filter11_f_1:55)">
<path d="M614.143 435.932C615.446 422.573 614.143 387.448 598.503 353.822C610.494 369.527 630.408 407.936 614.143 435.932Z" fill="#E33F08"/>
</g>
<g opacity="0.4" filter="url(#filter12_f_1:55)">
<path d="M561.49 399.601C561.74 397.859 561.895 396.088 561.945 394.29C562.922 358.709 542.395 339.941 520.499 342.873C498.603 345.806 493.715 375.131 505.054 388.425L480.456 395.719C478.524 378.17 480.491 350.342 499.971 338.572C528.123 321.564 561.358 338.963 566.246 371.025C567.879 381.743 565.519 391.446 561.49 399.601Z" fill="url(#paint11_linear_1:55)"/>
</g>
<g opacity="0.5" filter="url(#filter13_f_1:55)">
<path d="M604.662 345.908C612.358 365.888 620.246 392.983 618.444 413.254C615.316 448.443 592.638 428.698 589.51 403.87C589.357 402.652 589.202 401.373 589.041 400.041C585.924 374.212 580.389 328.357 532.424 319.805C481.985 310.812 467.323 362.424 467.323 374.936C467.323 387.448 473.97 388.621 476.12 379.628C476.295 378.897 476.49 377.963 476.72 376.863C479.322 364.419 486.36 330.753 518.153 330.753C552.756 330.753 566.441 355.581 573.284 374.936C579.401 392.24 578.018 420.483 545.38 431.582C536.934 441.087 527.085 448.04 520.499 451.571C561.163 463.627 641.982 480.505 639.949 451.571C637.686 419.369 628.913 380.191 604.662 345.908Z" fill="url(#paint12_linear_1:55)"/>
</g>
<g opacity="0.6" filter="url(#filter14_f_1:55)">
<path d="M578.563 368.875C571.212 339.003 545.067 328.081 534.38 326.061C611.993 335.054 590.488 440.428 581.495 454.699C572.502 468.971 550.411 472.099 559.599 454.699C568.788 437.3 587.751 406.216 578.563 368.875Z" fill="#E33F08"/>
</g>
<g filter="url(#filter15_d_1:55)">
<mask id="mask0_1:55" style="mask-type:alpha" maskUnits="userSpaceOnUse" x="313" y="447" width="555" height="402">
<path d="M687.444 848.435H497.603C468.114 848.435 453.37 848.435 442.217 846.761C358.426 834.192 301.317 755.234 315.611 671.721C317.514 660.604 322.13 646.601 331.362 618.595L331.362 618.595C338.718 596.278 342.396 585.12 346.713 575.38C378.175 504.382 445.373 455.778 522.651 448.125C533.254 447.075 545.002 447.075 568.5 447.075H616.098C639.153 447.075 650.68 447.075 660.989 448.067C742.626 455.925 812.742 509.402 841.911 586.053C845.594 595.732 848.642 606.848 854.739 629.08L854.74 629.083L854.741 629.085C861.695 654.445 865.173 667.126 866.525 677.286C877.515 759.884 819.611 835.806 737.048 847.051C726.891 848.435 713.742 848.435 687.444 848.435Z" fill="#FF7F0A"/>
</mask>
<g mask="url(#mask0_1:55)">
<g filter="url(#filter16_i_1:55)">
<path d="M687.444 848.435H497.603C468.114 848.435 453.37 848.435 442.217 846.761C358.426 834.192 301.317 755.234 315.611 671.721C317.514 660.604 322.13 646.601 331.362 618.595L331.362 618.595C338.718 596.278 342.396 585.12 346.713 575.38C378.175 504.382 445.373 455.778 522.651 448.125C533.254 447.075 545.002 447.075 568.5 447.075H616.098C639.153 447.075 650.68 447.075 660.989 448.067C742.626 455.925 812.742 509.402 841.911 586.053C845.594 595.732 848.642 606.848 854.739 629.08L854.74 629.083L854.741 629.085C861.695 654.445 865.173 667.126 866.525 677.286C877.515 759.884 819.611 835.806 737.048 847.051C726.891 848.435 713.742 848.435 687.444 848.435Z" fill="url(#paint13_radial_1:55)"/>
</g>
<g filter="url(#filter17_ddi_1:55)">
<path d="M448.359 531.146C425.161 590.146 410.686 659.759 427.151 740.135C435.313 779.979 439.394 799.901 462.929 821.732C465.401 824.026 470.025 827.799 472.768 829.76C498.878 848.435 526.662 848.435 584.903 848.435C640.472 848.435 671.93 848.435 698.04 829.76C700.783 827.799 705.407 824.026 707.88 821.732C731.414 799.901 735.495 779.979 743.657 740.135C760.123 659.759 745.647 590.146 722.449 531.146C717.622 518.87 715.208 512.732 709.211 503.201C693.359 478.008 659.154 454.703 629.907 449.169C618.843 447.075 605.08 447.075 584.903 447.075C562.054 447.075 551.965 447.075 540.901 449.169C511.655 454.703 477.449 478.008 461.597 503.201C455.6 512.732 453.186 518.87 448.359 531.146Z" fill="url(#paint14_radial_1:55)"/>
</g>
<g filter="url(#filter18_f_1:55)">
<ellipse cx="576.321" cy="536.041" rx="190.464" ry="68.6653" transform="rotate(1.0527 576.321 536.041)" fill="url(#paint15_linear_1:55)"/>
</g>
<g filter="url(#filter19_f_1:55)">
<ellipse cx="527.404" cy="554.895" rx="102.633" ry="35.5808" transform="rotate(-71.0877 527.404 554.895)" fill="url(#paint16_linear_1:55)"/>
</g>
<g opacity="0.8" filter="url(#filter20_f_1:55)">
<path d="M477.069 843.236C326.468 815.396 325.159 682.199 326.468 624.588L258.334 670.609L274.435 851.417L477.069 929.958C528.578 916.322 603.862 866.674 477.069 843.236Z" fill="#FFE600"/>
</g>
<g opacity="0.5" filter="url(#filter21_f_1:55)">
<path d="M837.403 652.741H342.008C337.838 672.551 340.796 728.281 385.996 792.718C442.495 873.264 705.637 870.136 790.288 806.207C858.009 755.065 849.915 682.587 837.403 652.741Z" fill="url(#paint17_linear_1:55)"/>
</g>
<g filter="url(#filter22_f_1:55)">
<path d="M434.946 654.103C434.157 741.506 453.916 793.738 477.074 829.15C399.223 785.891 394.789 637.202 429.772 558.732C457.759 495.957 498.918 466.581 515.999 459.74C497.768 474.629 435.931 544.849 434.946 654.103Z" fill="#EC6830"/>
</g>
<g opacity="0.2" filter="url(#filter23_iif_1:55)">
<path d="M760.294 661.738C761.124 762.747 693.586 809.27 669.192 850.194C862.182 850.194 849.952 648.582 813.101 557.898C783.621 485.35 713.608 431.288 609.452 442.229C628.656 459.436 759.256 535.477 760.294 661.738Z" fill="#511F0E"/>
</g>
<g filter="url(#filter24_f_1:55)">
<path d="M740.868 656.917C741.599 742.49 723.288 793.628 701.827 828.299C792.651 784.815 784.472 639.147 752.052 562.321C726.116 500.861 681.584 473.323 665.754 466.625C682.649 481.202 739.955 549.952 740.868 656.917Z" fill="#67B108" fill-opacity="0.83"/>
</g>
</g>
</g>
<circle cx="477.357" cy="578.778" r="75.001" fill="url(#paint18_linear_1:55)"/>
<path d="M539.961 537.461C528.777 528.495 514.581 523.132 499.131 523.132C463.054 523.132 433.808 552.378 433.808 588.455C433.808 620.956 457.542 647.913 488.624 652.938C484.949 653.492 481.186 653.779 477.357 653.779C435.935 653.779 402.355 620.2 402.355 578.778C402.355 537.356 435.935 503.777 477.357 503.777C503.511 503.777 526.539 517.165 539.961 537.461Z" fill="url(#paint19_linear_1:55)"/>
<circle r="75.001" transform="matrix(-1 0 0 1 693.044 578.779)" fill="url(#paint20_linear_1:55)"/>
<path d="M630.441 537.461C641.624 528.495 655.821 523.131 671.27 523.131C707.348 523.131 736.594 552.378 736.594 588.455C736.594 620.955 712.859 647.912 681.778 652.938C685.453 653.491 689.216 653.778 693.045 653.778C734.467 653.778 768.046 620.199 768.046 578.777C768.046 537.355 734.467 503.776 693.045 503.776C666.891 503.776 643.863 517.164 630.441 537.461Z" fill="url(#paint21_linear_1:55)"/>
<path d="M567.065 621.678C573.885 608.129 577.294 601.354 582.343 600.097C584.143 599.649 586.024 599.649 587.823 600.097C592.872 601.354 596.282 608.129 603.102 621.678C608.823 633.044 611.683 638.726 610.156 643.225C609.607 644.843 608.699 646.316 607.501 647.534C604.169 650.92 597.807 650.92 585.083 650.92C572.36 650.92 565.998 650.92 562.666 647.534C561.467 646.316 560.56 644.843 560.011 643.225C558.484 638.726 561.344 633.044 567.065 621.678Z" fill="url(#paint22_linear_1:55)"/>
<path d="M572.331 630.524C575.787 623.317 577.514 619.714 579.644 618.24C582.991 615.922 587.425 615.922 590.773 618.24C592.902 619.714 594.63 623.317 598.086 630.524C600.817 636.219 602.183 639.067 602.141 641.382C602.075 645.015 600 648.312 596.752 649.942C594.683 650.98 591.525 650.98 585.208 650.98C578.892 650.98 575.734 650.98 573.665 649.942C570.417 648.312 568.342 645.015 568.276 641.382C568.234 639.067 569.6 636.219 572.331 630.524Z" fill="url(#paint23_linear_1:55)"/>
<path d="M495.083 756.159V696.141H674.943V756.159C690.762 752.631 723.437 735.824 738.972 696.141H773.67C743.797 803.587 653.242 816.764 585.013 816.764C516.784 816.764 426.228 803.587 396.356 696.141H431.053C446.589 735.824 479.264 752.631 495.083 756.159Z" fill="url(#paint24_linear_1:55)"/>
<path d="M495.083 756.062H510.367V696.141H495.083V756.062Z" fill="url(#paint25_linear_1:55)"/>
<path d="M659.659 696.141V756.062H674.943V696.141H659.659Z" fill="url(#paint26_linear_1:55)"/>
<path d="M741.608 696.141C711.501 797.996 641.647 797.996 585.013 797.996C528.379 797.996 450.118 780.71 428.418 696.141H396.356C426.228 803.587 516.784 816.764 585.013 816.764C653.242 816.764 743.797 803.587 773.67 696.141H741.608Z" fill="url(#paint27_linear_1:55)"/>
<g opacity="0.2" filter="url(#filter25_f_1:55)">
<ellipse cx="695.868" cy="580.214" rx="86.3504" ry="83.4232" transform="rotate(-113.587 695.868 580.214)" fill="#8EA826"/>
</g>
</g>
</g>
<defs>
<filter id="filter0_d_1:55" x="0" y="0" width="1204" height="1204" filterUnits="userSpaceOnUse" color-interpolation-filters="sRGB">
<feFlood flood-opacity="0" result="BackgroundImageFix"/>
<feColorMatrix in="SourceAlpha" type="matrix" values="0 0 0 0 0 0 0 0 0 0 0 0 0 0 0 0 0 0 127 0" result="hardAlpha"/>
<feOffset dx="26" dy="24"/>
<feGaussianBlur stdDeviation="45"/>
<feColorMatrix type="matrix" values="0 0 0 0 0.121333 0 0 0 0 0.101667 0 0 0 0 0.2 0 0 0 0.13 0"/>
<feBlend mode="normal" in2="BackgroundImageFix" result="effect1_dropShadow_1:55"/>
<feBlend mode="normal" in="SourceGraphic" in2="effect1_dropShadow_1:55" result="shape"/>
</filter>
<filter id="filter1_f_1:55" x="-207.382" y="-306.508" width="1566.11" height="1329.54" filterUnits="userSpaceOnUse" color-interpolation-filters="sRGB">
<feFlood flood-opacity="0" result="BackgroundImageFix"/>
<feBlend mode="normal" in="SourceGraphic" in2="BackgroundImageFix" result="shape"/>
<feGaussianBlur stdDeviation="74.8616" result="effect1_foregroundBlur_1:55"/>
</filter>
<filter id="filter2_f_1:55" x="64.3658" y="155.389" width="1036.08" height="1015.12" filterUnits="userSpaceOnUse" color-interpolation-filters="sRGB">
<feFlood flood-opacity="0" result="BackgroundImageFix"/>
<feBlend mode="normal" in="SourceGraphic" in2="BackgroundImageFix" result="shape"/>
<feGaussianBlur stdDeviation="74.8616" result="effect1_foregroundBlur_1:55"/>
</filter>
<filter id="filter3_f_1:55" x="95.059" y="185.334" width="974.698" height="955.234" filterUnits="userSpaceOnUse" color-interpolation-filters="sRGB">
<feFlood flood-opacity="0" result="BackgroundImageFix"/>
<feBlend mode="normal" in="SourceGraphic" in2="BackgroundImageFix" result="shape"/>
<feGaussianBlur stdDeviation="74.8616" result="effect1_foregroundBlur_1:55"/>
</filter>
<filter id="filter4_f_1:55" x="-97.7439" y="-118.729" width="1148.35" height="1153.64" filterUnits="userSpaceOnUse" color-interpolation-filters="sRGB">
<feFlood flood-opacity="0" result="BackgroundImageFix"/>
<feBlend mode="normal" in="SourceGraphic" in2="BackgroundImageFix" result="shape"/>
<feGaussianBlur stdDeviation="71.1185" result="effect1_foregroundBlur_1:55"/>
</filter>
<filter id="filter5_f_1:55" x="154.2" y="55.8229" width="850.428" height="948.497" filterUnits="userSpaceOnUse" color-interpolation-filters="sRGB">
<feFlood flood-opacity="0" result="BackgroundImageFix"/>
<feBlend mode="normal" in="SourceGraphic" in2="BackgroundImageFix" result="shape"/>
<feGaussianBlur stdDeviation="29.9447" result="effect1_foregroundBlur_1:55"/>
</filter>
<filter id="filter6_f_1:55" x="9.79149" y="-239.367" width="998.546" height="1185.14" filterUnits="userSpaceOnUse" color-interpolation-filters="sRGB">
<feFlood flood-opacity="0" result="BackgroundImageFix"/>
<feBlend mode="normal" in="SourceGraphic" in2="BackgroundImageFix" result="shape"/>
<feGaussianBlur stdDeviation="28.6838" result="effect1_foregroundBlur_1:55"/>
</filter>
<filter id="filter7_f_1:55" x="102.591" y="-59.7038" width="873.611" height="953.085" filterUnits="userSpaceOnUse" color-interpolation-filters="sRGB">
<feFlood flood-opacity="0" result="BackgroundImageFix"/>
<feBlend mode="normal" in="SourceGraphic" in2="BackgroundImageFix" result="shape"/>
<feGaussianBlur stdDeviation="15.7598" result="effect1_foregroundBlur_1:55"/>
</filter>
<filter id="filter8_f_1:55" x="185.673" y="106.72" width="747.646" height="823.293" filterUnits="userSpaceOnUse" color-interpolation-filters="sRGB">
<feFlood flood-opacity="0" result="BackgroundImageFix"/>
<feBlend mode="normal" in="SourceGraphic" in2="BackgroundImageFix" result="shape"/>
<feGaussianBlur stdDeviation="28.3677" result="effect1_foregroundBlur_1:55"/>
</filter>
<filter id="filter9_f_1:55" x="304.277" y="766.201" width="562.129" height="182.633" filterUnits="userSpaceOnUse" color-interpolation-filters="sRGB">
<feFlood flood-opacity="0" result="BackgroundImageFix"/>
<feBlend mode="normal" in="SourceGraphic" in2="BackgroundImageFix" result="shape"/>
<feGaussianBlur stdDeviation="25.1704" result="effect1_foregroundBlur_1:55"/>
</filter>
<filter id="filter10_i_1:55" x="434.093" y="294.752" width="205.894" height="172.795" filterUnits="userSpaceOnUse" color-interpolation-filters="sRGB">
<feFlood flood-opacity="0" result="BackgroundImageFix"/>
<feBlend mode="normal" in="SourceGraphic" in2="BackgroundImageFix" result="shape"/>
<feColorMatrix in="SourceAlpha" type="matrix" values="0 0 0 0 0 0 0 0 0 0 0 0 0 0 0 0 0 0 127 0" result="hardAlpha"/>
<feOffset dx="-12.9029" dy="-9.91089"/>
<feGaussianBlur stdDeviation="17.9859"/>
<feComposite in2="hardAlpha" operator="arithmetic" k2="-1" k3="1"/>
<feColorMatrix type="matrix" values="0 0 0 0 0.68 0 0 0 0 1 0 0 0 0 0 0 0 0 0.31 0"/>
<feBlend mode="normal" in2="shape" result="effect1_innerShadow_1:55"/>
</filter>
<filter id="filter11_f_1:55" x="587.164" y="342.483" width="44.4484" height="104.788" filterUnits="userSpaceOnUse" color-interpolation-filters="sRGB">
<feFlood flood-opacity="0" result="BackgroundImageFix"/>
<feBlend mode="normal" in="SourceGraphic" in2="BackgroundImageFix" result="shape"/>
<feGaussianBlur stdDeviation="5.66948" result="effect1_foregroundBlur_1:55"/>
</filter>
<filter id="filter12_f_1:55" x="461.884" y="313.946" width="122.871" height="103.641" filterUnits="userSpaceOnUse" color-interpolation-filters="sRGB">
<feFlood flood-opacity="0" result="BackgroundImageFix"/>
<feBlend mode="normal" in="SourceGraphic" in2="BackgroundImageFix" result="shape"/>
<feGaussianBlur stdDeviation="8.99296" result="effect1_foregroundBlur_1:55"/>
</filter>
<filter id="filter13_f_1:55" x="449.337" y="300.773" width="208.635" height="184.76" filterUnits="userSpaceOnUse" color-interpolation-filters="sRGB">
<feFlood flood-opacity="0" result="BackgroundImageFix"/>
<feBlend mode="normal" in="SourceGraphic" in2="BackgroundImageFix" result="shape"/>
<feGaussianBlur stdDeviation="8.99296" result="effect1_foregroundBlur_1:55"/>
</filter>
<filter id="filter14_f_1:55" x="517.958" y="309.639" width="89.642" height="173.388" filterUnits="userSpaceOnUse" color-interpolation-filters="sRGB">
<feFlood flood-opacity="0" result="BackgroundImageFix"/>
<feBlend mode="normal" in="SourceGraphic" in2="BackgroundImageFix" result="shape"/>
<feGaussianBlur stdDeviation="8.21097" result="effect1_foregroundBlur_1:55"/>
</filter>
<filter id="filter15_d_1:55" x="256.723" y="391.944" width="667.835" height="514.749" filterUnits="userSpaceOnUse" color-interpolation-filters="sRGB">
<feFlood flood-opacity="0" result="BackgroundImageFix"/>
<feColorMatrix in="SourceAlpha" type="matrix" values="0 0 0 0 0 0 0 0 0 0 0 0 0 0 0 0 0 0 127 0" result="hardAlpha"/>
<feOffset dy="1.56399"/>
<feGaussianBlur stdDeviation="28.3474"/>
<feColorMatrix type="matrix" values="0 0 0 0 1 0 0 0 0 0.54 0 0 0 0 0 0 0 0 0.5 0"/>
<feBlend mode="normal" in2="BackgroundImageFix" result="effect1_dropShadow_1:55"/>
<feBlend mode="normal" in="SourceGraphic" in2="effect1_dropShadow_1:55" result="shape"/>
</filter>
<filter id="filter16_i_1:55" x="277.837" y="415.404" width="590.026" height="433.031" filterUnits="userSpaceOnUse" color-interpolation-filters="sRGB">
<feFlood flood-opacity="0" result="BackgroundImageFix"/>
<feBlend mode="normal" in="SourceGraphic" in2="BackgroundImageFix" result="shape"/>
<feColorMatrix in="SourceAlpha" type="matrix" values="0 0 0 0 0 0 0 0 0 0 0 0 0 0 0 0 0 0 127 0" result="hardAlpha"/>
<feOffset dx="-37.9268" dy="-31.6709"/>
<feGaussianBlur stdDeviation="17.7904"/>
<feComposite in2="hardAlpha" operator="arithmetic" k2="-1" k3="1"/>
<feColorMatrix type="matrix" values="0 0 0 0 0.0588235 0 0 0 0 0.847059 0 0 0 0 0.137255 0 0 0 0.81 0"/>
<feBlend mode="normal" in2="shape" result="effect1_innerShadow_1:55"/>
</filter>
<filter id="filter17_ddi_1:55" x="342.277" y="414.231" width="410.009" height="458.446" filterUnits="userSpaceOnUse" color-interpolation-filters="sRGB">
<feFlood flood-opacity="0" result="BackgroundImageFix"/>
<feColorMatrix in="SourceAlpha" type="matrix" values="0 0 0 0 0 0 0 0 0 0 0 0 0 0 0 0 0 0 127 0" result="hardAlpha"/>
<feOffset dx="-49.2658" dy="-4.30098"/>
<feGaussianBlur stdDeviation="14.2714"/>
<feColorMatrix type="matrix" values="0 0 0 0 1 0 0 0 0 0.54 0 0 0 0 0 0 0 0 1 0"/>
<feBlend mode="normal" in2="BackgroundImageFix" result="effect1_dropShadow_1:55"/>
<feColorMatrix in="SourceAlpha" type="matrix" values="0 0 0 0 0 0 0 0 0 0 0 0 0 0 0 0 0 0 127 0" result="hardAlpha"/>
<feOffset dy="1.56399"/>
<feGaussianBlur stdDeviation="0.781997"/>
<feColorMatrix type="matrix" values="0 0 0 0 0 0 0 0 0 0 0 0 0 0 0 0 0 0 0.25 0"/>
<feBlend mode="normal" in2="effect1_dropShadow_1:55" result="effect2_dropShadow_1:55"/>
<feBlend mode="normal" in="SourceGraphic" in2="effect2_dropShadow_1:55" result="shape"/>
<feColorMatrix in="SourceAlpha" type="matrix" values="0 0 0 0 0 0 0 0 0 0 0 0 0 0 0 0 0 0 127 0" result="hardAlpha"/>
<feOffset dx="-32.8439" dy="-12.9029"/>
<feGaussianBlur stdDeviation="9.91089"/>
<feComposite in2="hardAlpha" operator="arithmetic" k2="-1" k3="1"/>
<feColorMatrix type="matrix" values="0 0 0 0 0.933375 0 0 0 0 0.95 0 0 0 0 0.11875 0 0 0 0.75 0"/>
<feBlend mode="normal" in2="shape" result="effect3_innerShadow_1:55"/>
</filter>
<filter id="filter18_f_1:55" x="333.852" y="415.264" width="484.939" height="241.555" filterUnits="userSpaceOnUse" color-interpolation-filters="sRGB">
<feFlood flood-opacity="0" result="BackgroundImageFix"/>
<feBlend mode="normal" in="SourceGraphic" in2="BackgroundImageFix" result="shape"/>
<feGaussianBlur stdDeviation="26.0164" result="effect1_foregroundBlur_1:55"/>
</filter>
<filter id="filter19_f_1:55" x="428.047" y="405.078" width="198.714" height="299.634" filterUnits="userSpaceOnUse" color-interpolation-filters="sRGB">
<feFlood flood-opacity="0" result="BackgroundImageFix"/>
<feBlend mode="normal" in="SourceGraphic" in2="BackgroundImageFix" result="shape"/>
<feGaussianBlur stdDeviation="26.0164" result="effect1_foregroundBlur_1:55"/>
</filter>
<filter id="filter20_f_1:55" x="238.003" y="604.256" width="329.019" height="346.034" filterUnits="userSpaceOnUse" color-interpolation-filters="sRGB">
<feFlood flood-opacity="0" result="BackgroundImageFix"/>
<feBlend mode="normal" in="SourceGraphic" in2="BackgroundImageFix" result="shape"/>
<feGaussianBlur stdDeviation="10.166" result="effect1_foregroundBlur_1:55"/>
</filter>
<filter id="filter21_f_1:55" x="281.992" y="594.091" width="622.525" height="318.269" filterUnits="userSpaceOnUse" color-interpolation-filters="sRGB">
<feFlood flood-opacity="0" result="BackgroundImageFix"/>
<feBlend mode="normal" in="SourceGraphic" in2="BackgroundImageFix" result="shape"/>
<feGaussianBlur stdDeviation="29.3249" result="effect1_foregroundBlur_1:55"/>
</filter>
<filter id="filter22_f_1:55" x="392.41" y="443.318" width="140.011" height="402.254" filterUnits="userSpaceOnUse" color-interpolation-filters="sRGB">
<feFlood flood-opacity="0" result="BackgroundImageFix"/>
<feBlend mode="normal" in="SourceGraphic" in2="BackgroundImageFix" result="shape"/>
<feGaussianBlur stdDeviation="8.21097" result="effect1_foregroundBlur_1:55"/>
</filter>
<filter id="filter23_iif_1:55" x="591.075" y="422.442" width="262.36" height="446.129" filterUnits="userSpaceOnUse" color-interpolation-filters="sRGB">
<feFlood flood-opacity="0" result="BackgroundImageFix"/>
<feBlend mode="normal" in="SourceGraphic" in2="BackgroundImageFix" result="shape"/>
<feColorMatrix in="SourceAlpha" type="matrix" values="0 0 0 0 0 0 0 0 0 0 0 0 0 0 0 0 0 0 127 0" result="hardAlpha"/>
<feOffset dy="1.56399"/>
<feGaussianBlur stdDeviation="0.781997"/>
<feComposite in2="hardAlpha" operator="arithmetic" k2="-1" k3="1"/>
<feColorMatrix type="matrix" values="0 0 0 0 0.425 0 0 0 0 0.189267 0 0 0 0 0.0566667 0 0 0 0.5 0"/>
<feBlend mode="normal" in2="shape" result="effect1_innerShadow_1:55"/>
<feColorMatrix in="SourceAlpha" type="matrix" values="0 0 0 0 0 0 0 0 0 0 0 0 0 0 0 0 0 0 127 0" result="hardAlpha"/>
<feOffset dx="26.5879" dy="8.21097"/>
<feGaussianBlur stdDeviation="0.781997"/>
<feComposite in2="hardAlpha" operator="arithmetic" k2="-1" k3="1"/>
<feColorMatrix type="matrix" values="0 0 0 0 0 0 0 0 0 0 0 0 0 0 0 0 0 0 0.25 0"/>
<feBlend mode="normal" in2="effect1_innerShadow_1:55" result="effect2_innerShadow_1:55"/>
<feGaussianBlur stdDeviation="9.18846" result="effect3_foregroundBlur_1:55"/>
</filter>
<filter id="filter24_f_1:55" x="649.332" y="450.203" width="141.64" height="394.517" filterUnits="userSpaceOnUse" color-interpolation-filters="sRGB">
<feFlood flood-opacity="0" result="BackgroundImageFix"/>
<feBlend mode="normal" in="SourceGraphic" in2="BackgroundImageFix" result="shape"/>
<feGaussianBlur stdDeviation="8.21097" result="effect1_foregroundBlur_1:55"/>
</filter>
<filter id="filter25_f_1:55" x="581.899" y="464.254" width="227.938" height="231.92" filterUnits="userSpaceOnUse" color-interpolation-filters="sRGB">
<feFlood flood-opacity="0" result="BackgroundImageFix"/>
<feBlend mode="normal" in="SourceGraphic" in2="BackgroundImageFix" result="shape"/>
<feGaussianBlur stdDeviation="15.0247" result="effect1_foregroundBlur_1:55"/>
</filter>
<linearGradient id="paint0_linear_1:55" x1="407.822" y1="-5" x2="1055.16" y2="1060.59" gradientUnits="userSpaceOnUse">
<stop stop-color="#76B95E" stop-opacity="0.97"/>
<stop offset="1" stop-color="#0C3720" stop-opacity="0.69"/>
</linearGradient>
<linearGradient id="paint1_linear_1:55" x1="838.261" y1="-80.5729" x2="660.058" y2="691.458" gradientUnits="userSpaceOnUse">
<stop stop-color="#B9FF8D" stop-opacity="0"/>
<stop offset="0.50718" stop-color="#46FF85" stop-opacity="0.12"/>
<stop offset="1" stop-color="#FFE600" stop-opacity="0"/>
</linearGradient>
<linearGradient id="paint2_linear_1:55" x1="582.408" y1="305.112" x2="582.408" y2="1020.79" gradientUnits="userSpaceOnUse">
<stop stop-color="#50FF76" stop-opacity="0.38"/>
<stop offset="1" stop-color="#50FFA0" stop-opacity="0"/>
</linearGradient>
<linearGradient id="paint3_linear_1:55" x1="582.408" y1="335.057" x2="582.408" y2="643.032" gradientUnits="userSpaceOnUse">
<stop stop-color="#FFFACE"/>
<stop offset="1" stop-color="white" stop-opacity="0"/>
</linearGradient>
<linearGradient id="paint4_linear_1:55" x1="478.194" y1="106.457" x2="478.194" y2="973.739" gradientUnits="userSpaceOnUse">
<stop stop-color="#A6FFEA" stop-opacity="0.95"/>
<stop offset="1" stop-color="#F6EB4E" stop-opacity="0"/>
</linearGradient>
<linearGradient id="paint5_linear_1:55" x1="847.793" y1="226.507" x2="580.917" y2="966.48" gradientUnits="userSpaceOnUse">
<stop stop-color="#FFFBA0" stop-opacity="0.15"/>
<stop offset="1" stop-color="#3AFFE7" stop-opacity="0.06"/>
</linearGradient>
<linearGradient id="paint6_linear_1:55" x1="125.721" y1="91.8142" x2="647.569" y2="662.952" gradientUnits="userSpaceOnUse">
<stop stop-color="#FDEE67" stop-opacity="0.49"/>
<stop offset="1" stop-color="#44FFE9" stop-opacity="0.29"/>
</linearGradient>
<radialGradient id="paint7_radial_1:55" cx="0" cy="0" r="1" gradientUnits="userSpaceOnUse" gradientTransform="translate(645.684 334.864) rotate(178.317) scale(282.162 447.696)">
<stop stop-color="#EDFFA4" stop-opacity="0.3"/>
<stop offset="1" stop-color="#B2FF50" stop-opacity="0.04"/>
</radialGradient>
<linearGradient id="paint8_linear_1:55" x1="284.429" y1="332.059" x2="636.724" y2="739.268" gradientUnits="userSpaceOnUse">
<stop stop-color="#FEFFD2" stop-opacity="0.31"/>
<stop offset="1" stop-color="#B2FF50" stop-opacity="0.1"/>
</linearGradient>
<linearGradient id="paint9_linear_1:55" x1="585.342" y1="816.542" x2="585.342" y2="898.493" gradientUnits="userSpaceOnUse">
<stop/>
<stop offset="1" stop-color="#151433" stop-opacity="0.87"/>
<stop offset="1" stop-color="#251F27" stop-opacity="0.87"/>
</linearGradient>
<radialGradient id="paint10_radial_1:55" cx="0" cy="0" r="1" gradientUnits="userSpaceOnUse" gradientTransform="translate(477.545 298.359) rotate(70.119) scale(185.075 159.31)">
<stop stop-color="#E8F360"/>
<stop offset="0.420971" stop-color="#F7B34E" stop-opacity="0.990923"/>
<stop offset="0.829897" stop-color="#FFA843"/>
<stop offset="1" stop-color="#89F235"/>
</radialGradient>
<linearGradient id="paint11_linear_1:55" x1="523.319" y1="331.932" x2="523.319" y2="399.601" gradientUnits="userSpaceOnUse">
<stop stop-color="#9E4722"/>
<stop offset="1" stop-color="#BB391C" stop-opacity="0.87"/>
</linearGradient>
<linearGradient id="paint12_linear_1:55" x1="553.655" y1="318.759" x2="553.655" y2="467.547" gradientUnits="userSpaceOnUse">
<stop stop-color="#9E4722"/>
<stop offset="1" stop-color="#BB391C" stop-opacity="0.87"/>
</linearGradient>
<radialGradient id="paint13_radial_1:55" cx="0" cy="0" r="1" gradientUnits="userSpaceOnUse" gradientTransform="translate(585.246 503.855) rotate(64.8675) scale(380.201 453.548)">
<stop stop-color="#F1A42F"/>
<stop offset="0.420971" stop-color="#FCDB69" stop-opacity="0.990923"/>
<stop offset="0.829897" stop-color="#F8B147" stop-opacity="0.77"/>
<stop offset="1" stop-color="#EEAF4F"/>
</radialGradient>
<radialGradient id="paint14_radial_1:55" cx="0" cy="0" r="1" gradientUnits="userSpaceOnUse" gradientTransform="translate(585.404 503.855) rotate(90.8281) scale(356.585 213.458)">
<stop stop-color="#F38B2C"/>
<stop offset="0.420971" stop-color="#FFA681" stop-opacity="0.990923"/>
<stop offset="0.829897" stop-color="#F79A10" stop-opacity="0.77"/>
</radialGradient>
<linearGradient id="paint15_linear_1:55" x1="411.098" y1="496.455" x2="448.979" y2="627.951" gradientUnits="userSpaceOnUse">
<stop stop-color="#FFEB37" stop-opacity="0.71"/>
<stop offset="1" stop-color="#FF7C02" stop-opacity="0.7"/>
</linearGradient>
<linearGradient id="paint16_linear_1:55" x1="438.372" y1="534.382" x2="457.358" y2="602.916" gradientUnits="userSpaceOnUse">
<stop stop-color="white"/>
<stop offset="1" stop-color="#FFFFF8" stop-opacity="0.7"/>
</linearGradient>
<linearGradient id="paint17_linear_1:55" x1="593.255" y1="652.741" x2="593.255" y2="853.71" gradientUnits="userSpaceOnUse">
<stop stop-color="#F8A120"/>
<stop offset="1" stop-color="#A5BB1C" stop-opacity="0.87"/>
</linearGradient>
<linearGradient id="paint18_linear_1:55" x1="477.357" y1="503.777" x2="477.357" y2="653.779" gradientUnits="userSpaceOnUse">
<stop stop-color="#27613E"/>
<stop offset="1" stop-color="#1B213F"/>
</linearGradient>
<linearGradient id="paint19_linear_1:55" x1="504.859" y1="517.064" x2="483.941" y2="663.297" gradientUnits="userSpaceOnUse">
<stop stop-color="#AF6E31"/>
<stop offset="0.558371" stop-color="#E45314" stop-opacity="0.990923"/>
<stop offset="1" stop-color="#FFC700"/>
</linearGradient>
<linearGradient id="paint20_linear_1:55" x1="75.001" y1="0" x2="75.001" y2="150.002" gradientUnits="userSpaceOnUse">
<stop stop-color="#27613E"/>
<stop offset="1" stop-color="#1B213F"/>
</linearGradient>
<linearGradient id="paint21_linear_1:55" x1="732.944" y1="517.063" x2="712.026" y2="663.297" gradientUnits="userSpaceOnUse">
<stop stop-color="#9C500A"/>
<stop offset="0.558371" stop-color="#E45314" stop-opacity="0.990923"/>
<stop offset="1" stop-color="#FFC700"/>
</linearGradient>
<linearGradient id="paint22_linear_1:55" x1="589.436" y1="623.413" x2="595.929" y2="666.713" gradientUnits="userSpaceOnUse">
<stop stop-color="#9C500A"/>
<stop offset="1" stop-color="#FF2E00"/>
</linearGradient>
<linearGradient id="paint23_linear_1:55" x1="585.208" y1="603.67" x2="585.208" y2="650.98" gradientUnits="userSpaceOnUse">
<stop stop-color="#1D2B3F"/>
<stop offset="1" stop-color="#1A4A33"/>
</linearGradient>
<linearGradient id="paint24_linear_1:55" x1="705.747" y1="781.24" x2="585.013" y2="816.764" gradientUnits="userSpaceOnUse">
<stop stop-color="#27613E"/>
<stop offset="1" stop-color="#1B213F"/>
</linearGradient>
<linearGradient id="paint25_linear_1:55" x1="694.4" y1="686.051" x2="682.738" y2="829.513" gradientUnits="userSpaceOnUse">
<stop stop-color="#225321"/>
<stop offset="0.558371" stop-color="#E46C14" stop-opacity="0.990923"/>
<stop offset="1" stop-color="#FFC700"/>
</linearGradient>
<linearGradient id="paint26_linear_1:55" x1="694.4" y1="686.051" x2="682.738" y2="829.513" gradientUnits="userSpaceOnUse">
<stop stop-color="#225321"/>
<stop offset="0.558371" stop-color="#E46C14" stop-opacity="0.990923"/>
<stop offset="1" stop-color="#FFC700"/>
</linearGradient>
<linearGradient id="paint27_linear_1:55" x1="694.4" y1="686.051" x2="682.738" y2="829.513" gradientUnits="userSpaceOnUse">
<stop stop-color="#225321"/>
<stop offset="0.558371" stop-color="#E46C14" stop-opacity="0.990923"/>
<stop offset="1" stop-color="#FFC700"/>
</linearGradient>
<clipPath id="clip0_1:55">
<rect x="64" y="66" width="1024" height="1024" rx="50" fill="white"/>
</clipPath>
</defs>
</svg>
