<svg width="405" height="364" viewBox="0 0 405 364" fill="none" xmlns="http://www.w3.org/2000/svg">
<mask id="mask0_3_510" style="mask-type:alpha" maskUnits="userSpaceOnUse" x="6" y="9" width="389" height="355">
<path d="M268.138 17.5985C225.38 6.48697 180.491 6.48695 137.733 17.5985L124.435 21.0541C52.4308 39.7657 3.38421 106.367 6.88248 180.68L7.542 194.691C10.1054 249.145 44.9245 296.812 96.0196 315.816C101.733 317.94 106.593 321.877 109.858 327.025L121.352 345.145C126.145 352.701 133.488 358.288 142.049 360.892L142.705 361.092C144.295 361.576 145.957 361.786 147.618 361.714C155.73 361.361 162.552 355.513 164.139 347.549L164.348 346.5C165.666 339.888 175.032 339.644 176.692 346.179L177.098 347.778C179.14 355.818 185.908 361.779 194.141 362.789L200.608 363.583C202.606 363.828 204.626 363.828 206.623 363.583L212.434 362.87C221.063 361.811 228.156 355.563 230.297 347.137L230.585 346.002C232.325 339.152 242.092 339.254 243.687 346.14L244.05 347.706C245.886 355.63 252.78 361.358 260.906 361.711C262.612 361.785 264.319 361.569 265.953 361.072L266.447 360.922C275.048 358.305 282.368 352.583 286.984 344.868L297.74 326.89C300.769 321.826 305.353 317.878 310.81 315.632C357.251 296.52 389.025 252.947 393.026 202.886L394.313 186.783C400.489 109.504 350.287 38.9464 275.254 19.4477L268.138 17.5985Z" fill="#FFF0D3"/>
</mask>
<g mask="url(#mask0_3_510)">
<g filter="url(#filter0_di_3_510)">
<path d="M268.138 17.5985C225.38 6.48697 180.491 6.48695 137.733 17.5985L124.435 21.0541C52.4308 39.7657 3.38421 106.367 6.88248 180.68L7.542 194.691C10.1054 249.145 44.9245 296.812 96.0196 315.816C101.733 317.94 106.593 321.877 109.858 327.025L121.352 345.145C126.145 352.701 133.488 358.288 142.049 360.892L142.705 361.092C144.295 361.576 145.957 361.786 147.618 361.714C155.73 361.361 162.552 355.513 164.139 347.549L164.348 346.5C165.666 339.888 175.032 339.644 176.692 346.179L177.098 347.778C179.14 355.818 185.908 361.779 194.141 362.789L200.608 363.583C202.606 363.828 204.626 363.828 206.623 363.583L212.434 362.87C221.063 361.811 228.156 355.563 230.297 347.137L230.585 346.002C232.325 339.152 242.092 339.254 243.687 346.14L244.05 347.706C245.886 355.63 252.78 361.358 260.906 361.711C262.612 361.785 264.319 361.569 265.953 361.072L266.447 360.922C275.048 358.305 282.368 352.583 286.984 344.868L297.74 326.89C300.769 321.826 305.353 317.878 310.81 315.632C357.251 296.52 389.025 252.947 393.026 202.886L394.313 186.783C400.489 109.504 350.287 38.9464 275.254 19.4477L268.138 17.5985Z" fill="url(#paint0_radial_3_510)"/>
</g>
<g filter="url(#filter1_f_3_510)">
<ellipse cx="142.47" cy="23.8329" rx="68.5276" ry="26.7056" fill="white"/>
</g>
<g filter="url(#filter2_f_3_510)">
<ellipse cx="142.47" cy="23.8331" rx="43.8375" ry="17.1319" fill="white"/>
</g>
<g opacity="0.4" filter="url(#filter3_f_3_510)">
<path d="M74.3192 266.608C72.4077 240.976 90.7499 218.273 116.212 214.757L178.125 206.205C190.074 204.555 202.192 204.555 214.141 206.205L275.809 214.723C301.38 218.255 319.765 241.107 317.74 266.841C314.499 308.01 280.145 339.766 238.848 339.766H153.135C111.766 339.766 77.3958 307.863 74.3192 266.608Z" fill="url(#paint1_linear_3_510)"/>
</g>
<g filter="url(#filter4_dd_3_510)">
<circle cx="104.931" cy="151.063" r="52.1515" fill="url(#paint2_linear_3_510)"/>
</g>
<g filter="url(#filter5_dd_3_510)">
<circle cx="300.94" cy="151.063" r="52.1515" fill="url(#paint3_linear_3_510)"/>
</g>
<g filter="url(#filter6_f_3_510)">
<ellipse rx="46.799" ry="10.6899" transform="matrix(0.771824 -0.635836 0.664722 0.747091 293.023 337.341)" fill="white"/>
</g>
<g filter="url(#filter7_f_3_510)">
<ellipse rx="15.9662" ry="5.66348" transform="matrix(0.771824 -0.635836 0.664722 0.747091 283.718 351.163)" fill="white"/>
</g>
<g filter="url(#filter8_f_3_510)">
<ellipse cx="226.302" cy="360.822" rx="23.4866" ry="12.0451" transform="rotate(-40.5683 226.302 360.822)" fill="white"/>
</g>
<g filter="url(#filter9_f_3_510)">
<ellipse cx="160.83" cy="363.815" rx="33.7563" ry="12.0451" transform="rotate(-40.5683 160.83 363.815)" fill="white"/>
</g>
</g>
<defs>
<filter id="filter0_di_3_510" x="-9.92134" y="-3.50733" width="413.817" height="374.328" filterUnits="userSpaceOnUse" color-interpolation-filters="sRGB">
<feFlood flood-opacity="0" result="BackgroundImageFix"/>
<feColorMatrix in="SourceAlpha" type="matrix" values="0 0 0 0 0 0 0 0 0 0 0 0 0 0 0 0 0 0 127 0" result="hardAlpha"/>
<feOffset dx="6.55044" dy="4.53492"/>
<feGaussianBlur stdDeviation="1.2597"/>
<feColorMatrix type="matrix" values="0 0 0 0 1 0 0 0 0 0 0 0 0 0 0.12 0 0 0 1 0"/>
<feBlend mode="normal" in2="BackgroundImageFix" result="effect1_dropShadow_3_510"/>
<feBlend mode="normal" in="SourceGraphic" in2="effect1_dropShadow_3_510" result="shape"/>
<feColorMatrix in="SourceAlpha" type="matrix" values="0 0 0 0 0 0 0 0 0 0 0 0 0 0 0 0 0 0 127 0" result="hardAlpha"/>
<feOffset dx="-16.628" dy="-12.7722"/>
<feGaussianBlur stdDeviation="12.7722"/>
<feComposite in2="hardAlpha" operator="arithmetic" k2="-1" k3="1"/>
<feColorMatrix type="matrix" values="0 0 0 0 0 0 0 0 0 1 0 0 0 0 0.94 0 0 0 0.31 0"/>
<feBlend mode="normal" in2="shape" result="effect2_innerShadow_3_510"/>
</filter>
<filter id="filter1_f_3_510" x="23.5545" y="-53.2607" width="237.831" height="154.187" filterUnits="userSpaceOnUse" color-interpolation-filters="sRGB">
<feFlood flood-opacity="0" result="BackgroundImageFix"/>
<feBlend mode="normal" in="SourceGraphic" in2="BackgroundImageFix" result="shape"/>
<feGaussianBlur stdDeviation="25.194" result="effect1_foregroundBlur_3_510"/>
</filter>
<filter id="filter2_f_3_510" x="48.2443" y="-43.6868" width="188.451" height="135.04" filterUnits="userSpaceOnUse" color-interpolation-filters="sRGB">
<feFlood flood-opacity="0" result="BackgroundImageFix"/>
<feBlend mode="normal" in="SourceGraphic" in2="BackgroundImageFix" result="shape"/>
<feGaussianBlur stdDeviation="25.194" result="effect1_foregroundBlur_3_510"/>
</filter>
<filter id="filter3_f_3_510" x="-1.3995" y="129.386" width="394.873" height="285.962" filterUnits="userSpaceOnUse" color-interpolation-filters="sRGB">
<feFlood flood-opacity="0" result="BackgroundImageFix"/>
<feBlend mode="normal" in="SourceGraphic" in2="BackgroundImageFix" result="shape"/>
<feGaussianBlur stdDeviation="37.791" result="effect1_foregroundBlur_3_510"/>
</filter>
<filter id="filter4_dd_3_510" x="25.2883" y="82.74" width="170.604" height="173.838" filterUnits="userSpaceOnUse" color-interpolation-filters="sRGB">
<feFlood flood-opacity="0" result="BackgroundImageFix"/>
<feColorMatrix in="SourceAlpha" type="matrix" values="0 0 0 0 0 0 0 0 0 0 0 0 0 0 0 0 0 0 127 0" result="hardAlpha"/>
<feOffset dx="5.65986" dy="20.2138"/>
<feGaussianBlur stdDeviation="16.5753"/>
<feColorMatrix type="matrix" values="0 0 0 0 0.758333 0 0 0 0 0.408363 0 0 0 0 0.0853125 0 0 0 0.77 0"/>
<feBlend mode="normal" in2="BackgroundImageFix" result="effect1_dropShadow_3_510"/>
<feColorMatrix in="SourceAlpha" type="matrix" values="0 0 0 0 0 0 0 0 0 0 0 0 0 0 0 0 0 0 127 0" result="hardAlpha"/>
<feOffset dx="-4.04276" dy="-4.04276"/>
<feGaussianBlur stdDeviation="6.06413"/>
<feColorMatrix type="matrix" values="0 0 0 0 1 0 0 0 0 1 0 0 0 0 1 0 0 0 0.59 0"/>
<feBlend mode="normal" in2="effect1_dropShadow_3_510" result="effect2_dropShadow_3_510"/>
<feBlend mode="normal" in="SourceGraphic" in2="effect2_dropShadow_3_510" result="shape"/>
</filter>
<filter id="filter5_dd_3_510" x="209.978" y="82.7401" width="170.604" height="173.839" filterUnits="userSpaceOnUse" color-interpolation-filters="sRGB">
<feFlood flood-opacity="0" result="BackgroundImageFix"/>
<feColorMatrix in="SourceAlpha" type="matrix" values="0 0 0 0 0 0 0 0 0 0 0 0 0 0 0 0 0 0 127 0" result="hardAlpha"/>
<feOffset dx="-5.65986" dy="20.2138"/>
<feGaussianBlur stdDeviation="16.5753"/>
<feColorMatrix type="matrix" values="0 0 0 0 0.758333 0 0 0 0 0.408363 0 0 0 0 0.0853125 0 0 0 0.77 0"/>
<feBlend mode="normal" in2="BackgroundImageFix" result="effect1_dropShadow_3_510"/>
<feColorMatrix in="SourceAlpha" type="matrix" values="0 0 0 0 0 0 0 0 0 0 0 0 0 0 0 0 0 0 127 0" result="hardAlpha"/>
<feOffset dx="4.04276" dy="-4.04276"/>
<feGaussianBlur stdDeviation="6.06413"/>
<feColorMatrix type="matrix" values="0 0 0 0 1 0 0 0 0 1 0 0 0 0 1 0 0 0 0.59 0"/>
<feBlend mode="normal" in2="effect1_dropShadow_3_510" result="effect2_dropShadow_3_510"/>
<feBlend mode="normal" in="SourceGraphic" in2="effect2_dropShadow_3_510" result="shape"/>
</filter>
<filter id="filter6_f_3_510" x="220.931" y="271.252" width="144.183" height="132.178" filterUnits="userSpaceOnUse" color-interpolation-filters="sRGB">
<feFlood flood-opacity="0" result="BackgroundImageFix"/>
<feBlend mode="normal" in="SourceGraphic" in2="BackgroundImageFix" result="shape"/>
<feGaussianBlur stdDeviation="17.6358" result="effect1_foregroundBlur_3_510"/>
</filter>
<filter id="filter7_f_3_510" x="250.674" y="320.007" width="66.0879" height="62.3128" filterUnits="userSpaceOnUse" color-interpolation-filters="sRGB">
<feFlood flood-opacity="0" result="BackgroundImageFix"/>
<feBlend mode="normal" in="SourceGraphic" in2="BackgroundImageFix" result="shape"/>
<feGaussianBlur stdDeviation="10.0776" result="effect1_foregroundBlur_3_510"/>
</filter>
<filter id="filter8_f_3_510" x="171.54" y="307.743" width="109.523" height="106.159" filterUnits="userSpaceOnUse" color-interpolation-filters="sRGB">
<feFlood flood-opacity="0" result="BackgroundImageFix"/>
<feBlend mode="normal" in="SourceGraphic" in2="BackgroundImageFix" result="shape"/>
<feGaussianBlur stdDeviation="17.6358" result="effect1_foregroundBlur_3_510"/>
</filter>
<filter id="filter9_f_3_510" x="98.7388" y="304.753" width="124.182" height="118.124" filterUnits="userSpaceOnUse" color-interpolation-filters="sRGB">
<feFlood flood-opacity="0" result="BackgroundImageFix"/>
<feBlend mode="normal" in="SourceGraphic" in2="BackgroundImageFix" result="shape"/>
<feGaussianBlur stdDeviation="17.6358" result="effect1_foregroundBlur_3_510"/>
</filter>
<radialGradient id="paint0_radial_3_510" cx="0" cy="0" r="1" gradientUnits="userSpaceOnUse" gradientTransform="translate(202.935 52.0502) rotate(91.118) scale(322.796 260.871)">
<stop stop-color="#FFF0D3"/>
<stop offset="0.420971" stop-color="#FFED48" stop-opacity="0.990923"/>
<stop offset="0.829897" stop-color="#FFD643" stop-opacity="0.77"/>
<stop offset="1" stop-color="#C69F17"/>
</radialGradient>
<linearGradient id="paint1_linear_3_510" x1="196.133" y1="203.718" x2="196.133" y2="339.766" gradientUnits="userSpaceOnUse">
<stop stop-color="#9E4722"/>
<stop offset="1" stop-color="#BB391C" stop-opacity="0.87"/>
</linearGradient>
<linearGradient id="paint2_linear_3_510" x1="104.931" y1="106.391" x2="104.972" y2="212.459" gradientUnits="userSpaceOnUse">
<stop stop-color="#2E1E65"/>
<stop offset="1" stop-color="#11082F"/>
</linearGradient>
<linearGradient id="paint3_linear_3_510" x1="300.94" y1="106.392" x2="300.981" y2="212.459" gradientUnits="userSpaceOnUse">
<stop stop-color="#2E1E65"/>
<stop offset="1" stop-color="#11082F"/>
</linearGradient>
</defs>
</svg>
