<svg width="931" height="746" viewBox="0 0 931 746" fill="none" xmlns="http://www.w3.org/2000/svg">
<g filter="url(#filter0_f_3_501)">
<path d="M-22.9125 -147.658H829.652L677.011 448.942L203.464 545.68L-22.9125 -147.658Z" fill="url(#paint0_linear_3_501)"/>
</g>
<g filter="url(#filter1_f_3_501)">
<ellipse cx="407.905" cy="404.09" rx="247.909" ry="240.855" fill="url(#paint1_linear_3_501)"/>
</g>
<g opacity="0.4" filter="url(#filter2_f_3_501)">
<ellipse cx="407.905" cy="404.09" rx="227.25" ry="220.699" fill="url(#paint2_linear_3_501)"/>
</g>
<g opacity="0.3" filter="url(#filter3_f_3_501)">
<path d="M389.513 -96.7664C406.141 110.076 318.718 251.414 299.822 52.8859C173.097 118.642 211.347 314.835 115.15 238.369C132.698 397.606 250.97 453.641 185.429 441.695C298.338 546.937 473.214 553.195 545.905 469.57C531.798 469.57 530.413 468.716 530.413 453.641C643.188 432.522 697.801 357.977 696.609 307.136C690.449 321.367 683.71 345.625 653.43 349.536C615.58 354.425 688.562 185.572 640.281 150.7C545.905 247.635 545.905 -2.28892 389.513 -96.7664Z" fill="url(#paint3_linear_3_501)"/>
</g>
<g filter="url(#filter4_f_3_501)">
<path d="M470.803 35.7539C551.778 61.7036 553.542 272.512 599.606 161.736C630.894 252.715 570.423 393.967 651.782 322.049C636.941 471.816 536.912 524.518 592.344 513.282C496.851 612.266 348.949 618.151 287.47 539.499C299.401 539.499 300.572 538.697 300.572 524.518C205.193 504.655 159.004 434.544 160.012 386.726C165.221 400.111 170.921 422.926 196.53 426.605C228.542 431.203 166.818 272.392 207.651 239.594C247.427 391.024 224.246 191.452 319.236 138.215C339.393 272.499 489.796 155.337 470.803 35.7539Z" fill="url(#paint4_linear_3_501)"/>
</g>
<g filter="url(#filter5_f_3_501)">
<path d="M536.807 55.7097C552.663 180.981 429.171 134.502 448.215 -55.7003C372.081 0.734211 331.021 96.163 292.768 133.255C269.633 155.688 196.846 137.286 230.287 55.7097C151.044 136.893 194.601 248.989 125.48 185.658C89.7047 673.918 830.957 707.719 631.607 144.984C597.815 278.334 617.509 102.59 536.807 55.7097Z" fill="url(#paint5_radial_3_501)"/>
</g>
<g opacity="0.1" filter="url(#filter6_f_3_501)">
<path d="M414.015 23.1569C340.404 43.2922 330.536 238.184 288.662 152.229C203.872 223.763 232.378 325.839 158.419 270.035C7.42743 686.201 858.272 708.491 644.968 212.642C608.811 330.142 629.883 175.287 543.533 133.978C560.499 244.36 393.638 190.752 414.015 23.1569Z" fill="url(#paint6_linear_3_501)"/>
</g>
<g filter="url(#filter7_f_3_501)">
<path d="M413.195 65.7348C353.625 83.7144 345.64 257.741 311.752 180.989C243.136 244.864 266.205 336.011 206.353 286.182C84.1619 657.793 772.714 677.697 600.096 234.933C570.835 339.854 587.888 201.578 518.008 164.692C531.738 263.256 396.705 215.387 413.195 65.7348Z" fill="url(#paint7_linear_3_501)"/>
</g>
<mask id="mask0_3_501" style="mask-type:alpha" maskUnits="userSpaceOnUse" x="215" y="226" width="389" height="355">
<path d="M477.138 234.598C434.38 223.487 389.491 223.487 346.733 234.598L333.435 238.054C261.431 256.766 212.384 323.367 215.882 397.68L216.542 411.691C219.105 466.145 253.925 513.812 305.02 532.816V532.816C310.733 534.94 315.593 538.877 318.858 544.025L330.352 562.145C335.145 569.701 342.488 575.288 351.049 577.892L351.705 578.092C353.295 578.576 354.957 578.786 356.618 578.714V578.714C364.73 578.361 371.552 572.513 373.139 564.549L373.348 563.5C374.666 556.888 384.032 556.644 385.692 563.179L386.098 564.778C388.14 572.818 394.908 578.779 403.141 579.789L409.608 580.583C411.606 580.828 413.626 580.828 415.623 580.583L421.434 579.87C430.063 578.811 437.156 572.563 439.297 564.137L439.585 563.002C441.325 556.152 451.092 556.254 452.687 563.14L453.05 564.706C454.886 572.63 461.78 578.358 469.906 578.711V578.711C471.612 578.785 473.319 578.569 474.953 578.072L475.447 577.922C484.048 575.305 491.368 569.583 495.984 561.868L506.74 543.89C509.769 538.826 514.353 534.878 519.81 532.632V532.632C566.251 513.52 598.025 469.947 602.026 419.886L603.313 403.782C609.489 326.504 559.287 255.946 484.254 236.448L477.138 234.598Z" fill="#FFF0D3"/>
</mask>
<g mask="url(#mask0_3_501)">
<g filter="url(#filter8_di_3_501)">
<path d="M477.138 234.598C434.38 223.487 389.491 223.487 346.733 234.598L333.435 238.054C261.431 256.766 212.384 323.367 215.882 397.68L216.542 411.691C219.105 466.145 253.925 513.812 305.02 532.816V532.816C310.733 534.94 315.593 538.877 318.858 544.025L330.352 562.145C335.145 569.701 342.488 575.288 351.049 577.892L351.705 578.092C353.295 578.576 354.957 578.786 356.618 578.714V578.714C364.73 578.361 371.552 572.513 373.139 564.549L373.348 563.5C374.666 556.888 384.032 556.644 385.692 563.179L386.098 564.778C388.14 572.818 394.908 578.779 403.141 579.789L409.608 580.583C411.606 580.828 413.626 580.828 415.623 580.583L421.434 579.87C430.063 578.811 437.156 572.563 439.297 564.137L439.585 563.002C441.325 556.152 451.092 556.254 452.687 563.14L453.05 564.706C454.886 572.63 461.78 578.358 469.906 578.711V578.711C471.612 578.785 473.319 578.569 474.953 578.072L475.447 577.922C484.048 575.305 491.368 569.583 495.984 561.868L506.74 543.89C509.769 538.826 514.353 534.878 519.81 532.632V532.632C566.251 513.52 598.025 469.947 602.026 419.886L603.313 403.782C609.489 326.504 559.287 255.946 484.254 236.448L477.138 234.598Z" fill="url(#paint8_radial_3_501)"/>
</g>
<g filter="url(#filter9_f_3_501)">
<ellipse cx="351.47" cy="240.833" rx="68.5276" ry="26.7056" fill="white"/>
</g>
<g filter="url(#filter10_f_3_501)">
<ellipse cx="351.47" cy="240.833" rx="43.8375" ry="17.1319" fill="white"/>
</g>
<g opacity="0.4" filter="url(#filter11_f_3_501)">
<path d="M283.319 483.608C281.408 457.976 299.75 435.273 325.212 431.757L387.125 423.205C399.074 421.555 411.192 421.555 423.141 423.205L484.809 431.723C510.38 435.255 528.765 458.107 526.74 483.841V483.841C523.499 525.01 489.145 556.766 447.848 556.766H362.135C320.766 556.766 286.396 524.863 283.319 483.608V483.608Z" fill="url(#paint9_linear_3_501)"/>
</g>
<g filter="url(#filter12_dd_3_501)">
<circle cx="313.931" cy="368.063" r="52.1515" fill="url(#paint10_linear_3_501)"/>
</g>
<g filter="url(#filter13_dd_3_501)">
<circle cx="509.94" cy="368.063" r="52.1515" fill="url(#paint11_linear_3_501)"/>
</g>
<g filter="url(#filter14_f_3_501)">
<ellipse rx="46.799" ry="10.6899" transform="matrix(0.771824 -0.635836 0.664722 0.747091 502.023 554.341)" fill="white"/>
</g>
<g filter="url(#filter15_f_3_501)">
<ellipse rx="15.9662" ry="5.66348" transform="matrix(0.771824 -0.635836 0.664722 0.747091 492.718 568.163)" fill="white"/>
</g>
<g filter="url(#filter16_f_3_501)">
<ellipse cx="435.302" cy="577.823" rx="23.4866" ry="12.0451" transform="rotate(-40.5683 435.302 577.823)" fill="white"/>
</g>
<g filter="url(#filter17_f_3_501)">
<ellipse cx="369.83" cy="580.815" rx="33.7563" ry="12.0451" transform="rotate(-40.5683 369.83 580.815)" fill="white"/>
</g>
</g>
<g filter="url(#filter18_f_3_501)">
<ellipse cx="391.781" cy="229.244" rx="82.1324" ry="45.8531" fill="url(#paint12_linear_3_501)"/>
</g>
<defs>
<filter id="filter0_f_3_501" x="-123.688" y="-248.434" width="1054.12" height="894.89" filterUnits="userSpaceOnUse" color-interpolation-filters="sRGB">
<feFlood flood-opacity="0" result="BackgroundImageFix"/>
<feBlend mode="normal" in="SourceGraphic" in2="BackgroundImageFix" result="shape"/>
<feGaussianBlur stdDeviation="50.388" result="effect1_foregroundBlur_3_501"/>
</filter>
<filter id="filter1_f_3_501" x="59.2199" y="62.4595" width="697.37" height="683.261" filterUnits="userSpaceOnUse" color-interpolation-filters="sRGB">
<feFlood flood-opacity="0" result="BackgroundImageFix"/>
<feBlend mode="normal" in="SourceGraphic" in2="BackgroundImageFix" result="shape"/>
<feGaussianBlur stdDeviation="50.388" result="effect1_foregroundBlur_3_501"/>
</filter>
<filter id="filter2_f_3_501" x="79.879" y="82.6148" width="656.051" height="642.951" filterUnits="userSpaceOnUse" color-interpolation-filters="sRGB">
<feFlood flood-opacity="0" result="BackgroundImageFix"/>
<feBlend mode="normal" in="SourceGraphic" in2="BackgroundImageFix" result="shape"/>
<feGaussianBlur stdDeviation="50.388" result="effect1_foregroundBlur_3_501"/>
</filter>
<filter id="filter3_f_3_501" x="19.4133" y="-192.504" width="772.952" height="815.277" filterUnits="userSpaceOnUse" color-interpolation-filters="sRGB">
<feFlood flood-opacity="0" result="BackgroundImageFix"/>
<feBlend mode="normal" in="SourceGraphic" in2="BackgroundImageFix" result="shape"/>
<feGaussianBlur stdDeviation="47.8686" result="effect1_foregroundBlur_3_501"/>
</filter>
<filter id="filter4_f_3_501" x="119.685" y="-4.55652" width="572.407" height="638.416" filterUnits="userSpaceOnUse" color-interpolation-filters="sRGB">
<feFlood flood-opacity="0" result="BackgroundImageFix"/>
<feBlend mode="normal" in="SourceGraphic" in2="BackgroundImageFix" result="shape"/>
<feGaussianBlur stdDeviation="20.1552" result="effect1_foregroundBlur_3_501"/>
</filter>
<filter id="filter5_f_3_501" x="101.809" y="-78.1138" width="586.314" height="659.976" filterUnits="userSpaceOnUse" color-interpolation-filters="sRGB">
<feFlood flood-opacity="0" result="BackgroundImageFix"/>
<feBlend mode="normal" in="SourceGraphic" in2="BackgroundImageFix" result="shape"/>
<feGaussianBlur stdDeviation="11.2068" result="effect1_foregroundBlur_3_501"/>
</filter>
<filter id="filter6_f_3_501" x="39.5685" y="-77.6191" width="740.703" height="761.866" filterUnits="userSpaceOnUse" color-interpolation-filters="sRGB">
<feFlood flood-opacity="0" result="BackgroundImageFix"/>
<feBlend mode="normal" in="SourceGraphic" in2="BackgroundImageFix" result="shape"/>
<feGaussianBlur stdDeviation="50.388" result="effect1_foregroundBlur_3_501"/>
</filter>
<filter id="filter7_f_3_501" x="174.09" y="48.099" width="471.583" height="535.598" filterUnits="userSpaceOnUse" color-interpolation-filters="sRGB">
<feFlood flood-opacity="0" result="BackgroundImageFix"/>
<feBlend mode="normal" in="SourceGraphic" in2="BackgroundImageFix" result="shape"/>
<feGaussianBlur stdDeviation="8.81789" result="effect1_foregroundBlur_3_501"/>
</filter>
<filter id="filter8_di_3_501" x="199.079" y="213.493" width="413.817" height="374.328" filterUnits="userSpaceOnUse" color-interpolation-filters="sRGB">
<feFlood flood-opacity="0" result="BackgroundImageFix"/>
<feColorMatrix in="SourceAlpha" type="matrix" values="0 0 0 0 0 0 0 0 0 0 0 0 0 0 0 0 0 0 127 0" result="hardAlpha"/>
<feOffset dx="6.55044" dy="4.53492"/>
<feGaussianBlur stdDeviation="1.2597"/>
<feColorMatrix type="matrix" values="0 0 0 0 1 0 0 0 0 0 0 0 0 0 0.12 0 0 0 1 0"/>
<feBlend mode="normal" in2="BackgroundImageFix" result="effect1_dropShadow_3_501"/>
<feBlend mode="normal" in="SourceGraphic" in2="effect1_dropShadow_3_501" result="shape"/>
<feColorMatrix in="SourceAlpha" type="matrix" values="0 0 0 0 0 0 0 0 0 0 0 0 0 0 0 0 0 0 127 0" result="hardAlpha"/>
<feOffset dx="-16.628" dy="-12.7722"/>
<feGaussianBlur stdDeviation="12.7722"/>
<feComposite in2="hardAlpha" operator="arithmetic" k2="-1" k3="1"/>
<feColorMatrix type="matrix" values="0 0 0 0 0 0 0 0 0 1 0 0 0 0 0.94 0 0 0 0.31 0"/>
<feBlend mode="normal" in2="shape" result="effect2_innerShadow_3_501"/>
</filter>
<filter id="filter9_f_3_501" x="232.555" y="163.739" width="237.831" height="154.187" filterUnits="userSpaceOnUse" color-interpolation-filters="sRGB">
<feFlood flood-opacity="0" result="BackgroundImageFix"/>
<feBlend mode="normal" in="SourceGraphic" in2="BackgroundImageFix" result="shape"/>
<feGaussianBlur stdDeviation="25.194" result="effect1_foregroundBlur_3_501"/>
</filter>
<filter id="filter10_f_3_501" x="257.244" y="173.313" width="188.451" height="135.04" filterUnits="userSpaceOnUse" color-interpolation-filters="sRGB">
<feFlood flood-opacity="0" result="BackgroundImageFix"/>
<feBlend mode="normal" in="SourceGraphic" in2="BackgroundImageFix" result="shape"/>
<feGaussianBlur stdDeviation="25.194" result="effect1_foregroundBlur_3_501"/>
</filter>
<filter id="filter11_f_3_501" x="207.601" y="346.386" width="394.873" height="285.962" filterUnits="userSpaceOnUse" color-interpolation-filters="sRGB">
<feFlood flood-opacity="0" result="BackgroundImageFix"/>
<feBlend mode="normal" in="SourceGraphic" in2="BackgroundImageFix" result="shape"/>
<feGaussianBlur stdDeviation="37.791" result="effect1_foregroundBlur_3_501"/>
</filter>
<filter id="filter12_dd_3_501" x="234.288" y="299.74" width="170.604" height="173.838" filterUnits="userSpaceOnUse" color-interpolation-filters="sRGB">
<feFlood flood-opacity="0" result="BackgroundImageFix"/>
<feColorMatrix in="SourceAlpha" type="matrix" values="0 0 0 0 0 0 0 0 0 0 0 0 0 0 0 0 0 0 127 0" result="hardAlpha"/>
<feOffset dx="5.65986" dy="20.2138"/>
<feGaussianBlur stdDeviation="16.5753"/>
<feColorMatrix type="matrix" values="0 0 0 0 0.758333 0 0 0 0 0.408363 0 0 0 0 0.0853125 0 0 0 0.77 0"/>
<feBlend mode="normal" in2="BackgroundImageFix" result="effect1_dropShadow_3_501"/>
<feColorMatrix in="SourceAlpha" type="matrix" values="0 0 0 0 0 0 0 0 0 0 0 0 0 0 0 0 0 0 127 0" result="hardAlpha"/>
<feOffset dx="-4.04276" dy="-4.04276"/>
<feGaussianBlur stdDeviation="6.06413"/>
<feColorMatrix type="matrix" values="0 0 0 0 1 0 0 0 0 1 0 0 0 0 1 0 0 0 0.59 0"/>
<feBlend mode="normal" in2="effect1_dropShadow_3_501" result="effect2_dropShadow_3_501"/>
<feBlend mode="normal" in="SourceGraphic" in2="effect2_dropShadow_3_501" result="shape"/>
</filter>
<filter id="filter13_dd_3_501" x="418.978" y="299.74" width="170.604" height="173.839" filterUnits="userSpaceOnUse" color-interpolation-filters="sRGB">
<feFlood flood-opacity="0" result="BackgroundImageFix"/>
<feColorMatrix in="SourceAlpha" type="matrix" values="0 0 0 0 0 0 0 0 0 0 0 0 0 0 0 0 0 0 127 0" result="hardAlpha"/>
<feOffset dx="-5.65986" dy="20.2138"/>
<feGaussianBlur stdDeviation="16.5753"/>
<feColorMatrix type="matrix" values="0 0 0 0 0.758333 0 0 0 0 0.408363 0 0 0 0 0.0853125 0 0 0 0.77 0"/>
<feBlend mode="normal" in2="BackgroundImageFix" result="effect1_dropShadow_3_501"/>
<feColorMatrix in="SourceAlpha" type="matrix" values="0 0 0 0 0 0 0 0 0 0 0 0 0 0 0 0 0 0 127 0" result="hardAlpha"/>
<feOffset dx="4.04276" dy="-4.04276"/>
<feGaussianBlur stdDeviation="6.06413"/>
<feColorMatrix type="matrix" values="0 0 0 0 1 0 0 0 0 1 0 0 0 0 1 0 0 0 0.59 0"/>
<feBlend mode="normal" in2="effect1_dropShadow_3_501" result="effect2_dropShadow_3_501"/>
<feBlend mode="normal" in="SourceGraphic" in2="effect2_dropShadow_3_501" result="shape"/>
</filter>
<filter id="filter14_f_3_501" x="429.931" y="488.252" width="144.183" height="132.178" filterUnits="userSpaceOnUse" color-interpolation-filters="sRGB">
<feFlood flood-opacity="0" result="BackgroundImageFix"/>
<feBlend mode="normal" in="SourceGraphic" in2="BackgroundImageFix" result="shape"/>
<feGaussianBlur stdDeviation="17.6358" result="effect1_foregroundBlur_3_501"/>
</filter>
<filter id="filter15_f_3_501" x="459.674" y="537.007" width="66.0879" height="62.3128" filterUnits="userSpaceOnUse" color-interpolation-filters="sRGB">
<feFlood flood-opacity="0" result="BackgroundImageFix"/>
<feBlend mode="normal" in="SourceGraphic" in2="BackgroundImageFix" result="shape"/>
<feGaussianBlur stdDeviation="10.0776" result="effect1_foregroundBlur_3_501"/>
</filter>
<filter id="filter16_f_3_501" x="380.54" y="524.743" width="109.523" height="106.159" filterUnits="userSpaceOnUse" color-interpolation-filters="sRGB">
<feFlood flood-opacity="0" result="BackgroundImageFix"/>
<feBlend mode="normal" in="SourceGraphic" in2="BackgroundImageFix" result="shape"/>
<feGaussianBlur stdDeviation="17.6358" result="effect1_foregroundBlur_3_501"/>
</filter>
<filter id="filter17_f_3_501" x="307.739" y="521.753" width="124.182" height="118.124" filterUnits="userSpaceOnUse" color-interpolation-filters="sRGB">
<feFlood flood-opacity="0" result="BackgroundImageFix"/>
<feBlend mode="normal" in="SourceGraphic" in2="BackgroundImageFix" result="shape"/>
<feGaussianBlur stdDeviation="17.6358" result="effect1_foregroundBlur_3_501"/>
</filter>
<filter id="filter18_f_3_501" x="242.594" y="116.336" width="298.374" height="225.816" filterUnits="userSpaceOnUse" color-interpolation-filters="sRGB">
<feFlood flood-opacity="0" result="BackgroundImageFix"/>
<feBlend mode="normal" in="SourceGraphic" in2="BackgroundImageFix" result="shape"/>
<feGaussianBlur stdDeviation="33.5274" result="effect1_foregroundBlur_3_501"/>
</filter>
<linearGradient id="paint0_linear_3_501" x1="580.114" y1="-96.3619" x2="460.169" y2="423.278" gradientUnits="userSpaceOnUse">
<stop stop-color="#B9FF8D" stop-opacity="0"/>
<stop offset="0.50718" stop-color="#46FF85" stop-opacity="0.12"/>
<stop offset="1" stop-color="#FFE600" stop-opacity="0"/>
</linearGradient>
<linearGradient id="paint1_linear_3_501" x1="407.905" y1="163.235" x2="407.905" y2="644.944" gradientUnits="userSpaceOnUse">
<stop stop-color="#50FF76" stop-opacity="0.38"/>
<stop offset="1" stop-color="#50FFA0" stop-opacity="0"/>
</linearGradient>
<linearGradient id="paint2_linear_3_501" x1="407.905" y1="183.391" x2="407.905" y2="390.683" gradientUnits="userSpaceOnUse">
<stop stop-color="#FFFACE"/>
<stop offset="1" stop-color="white" stop-opacity="0"/>
</linearGradient>
<linearGradient id="paint3_linear_3_501" x1="404.693" y1="-40.9347" x2="404.693" y2="542.816" gradientUnits="userSpaceOnUse">
<stop stop-color="#A6FFEA" stop-opacity="0.95"/>
<stop offset="1" stop-color="#F6EB4E" stop-opacity="0"/>
</linearGradient>
<linearGradient id="paint4_linear_3_501" x1="586.53" y1="110.328" x2="406.901" y2="608.39" gradientUnits="userSpaceOnUse">
<stop stop-color="#FFFBA0" stop-opacity="0.15"/>
<stop offset="1" stop-color="#3AFFE7" stop-opacity="0.06"/>
</linearGradient>
<radialGradient id="paint5_radial_3_501" cx="0" cy="0" r="1" gradientUnits="userSpaceOnUse" gradientTransform="translate(315.947 185.91) rotate(-0.802419) scale(179.903 291.386)">
<stop stop-color="#EDFFA4" stop-opacity="0.3"/>
<stop offset="1" stop-color="#B2FF50" stop-opacity="0"/>
</radialGradient>
<linearGradient id="paint6_linear_3_501" x1="643.771" y1="166.487" x2="377.414" y2="506.214" gradientUnits="userSpaceOnUse">
<stop stop-color="#301758"/>
<stop offset="1" stop-color="#301658"/>
</linearGradient>
<linearGradient id="paint7_linear_3_501" x1="599.127" y1="193.72" x2="356.761" y2="473.877" gradientUnits="userSpaceOnUse">
<stop stop-color="#EDFFA4" stop-opacity="0.3"/>
<stop offset="1" stop-color="#B2FF50" stop-opacity="0.17"/>
</linearGradient>
<radialGradient id="paint8_radial_3_501" cx="0" cy="0" r="1" gradientUnits="userSpaceOnUse" gradientTransform="translate(411.935 269.05) rotate(91.118) scale(322.796 260.871)">
<stop stop-color="#FFF0D3"/>
<stop offset="0.420971" stop-color="#FFED48" stop-opacity="0.990923"/>
<stop offset="0.829897" stop-color="#FFD643" stop-opacity="0.77"/>
<stop offset="1" stop-color="#C69F17"/>
</radialGradient>
<linearGradient id="paint9_linear_3_501" x1="405.133" y1="420.718" x2="405.133" y2="556.766" gradientUnits="userSpaceOnUse">
<stop stop-color="#9E4722"/>
<stop offset="1" stop-color="#BB391C" stop-opacity="0.87"/>
</linearGradient>
<linearGradient id="paint10_linear_3_501" x1="313.931" y1="323.392" x2="313.972" y2="429.459" gradientUnits="userSpaceOnUse">
<stop stop-color="#2E1E65"/>
<stop offset="1" stop-color="#11082F"/>
</linearGradient>
<linearGradient id="paint11_linear_3_501" x1="509.94" y1="323.392" x2="509.981" y2="429.459" gradientUnits="userSpaceOnUse">
<stop stop-color="#2E1E65"/>
<stop offset="1" stop-color="#11082F"/>
</linearGradient>
<linearGradient id="paint12_linear_3_501" x1="320.533" y1="202.809" x2="355.915" y2="282.122" gradientUnits="userSpaceOnUse">
<stop stop-color="white" stop-opacity="0.71"/>
<stop offset="1" stop-color="#FFFFF8" stop-opacity="0.7"/>
</linearGradient>
</defs>
</svg>
